PathFileType	4	(X/Y/Z)	C:/Users/beibeiliu/ov580/test_trc\sequence.32_training_dense_left.trc
DataRate	CameraRate	NumFrames	NumMarkers	Units	OrigDataRate	OrigDataStartFrame	OrigNumFrames
120	120	11	19	mm	120	194	310
Frame#	Time	ThumbCMC			ThumbMCP			ThumbIP			ThumbTip			IndexMCP			IndexPIP			IndexTip			MiddleMCP			MiddlePIP			MiddleTip			RingMCP			RingPIP			RingTip			PinkyMCP			PinkyPIP			PinkyTip			BackHand1			BackHand2			BackHand3	
		X0	Y0	Z0	X1	Y1	Z1	X2	Y2	Z2	X3	Y3	Z3	X4	Y4	Z4	X5	Y5	Z5	X6	Y6	Z6	X7	Y7	Z7	X8	Y8	Z8	X9	Y9	Z9	X10	Y10	Z10	X11	Y11	Z11	X12	Y12	Z12	X13	Y13	Z13	X14	Y14	Z14	X15	Y15	Z15	X16	Y16	Z16	X17	Y17	Z17	X18	Y18	Z18	
193	1.60833	-262.712	9.18602	31.1904	-260.784	30.4247	6.4472	-256.421	40.2855	-17.6086	-248.083	50.9561	-35.0585	-259.335	-12.8364	-35.0507	-261.525	-2.59816	-56.7527	-258.184	17.8078	-74.4339	-235.034	-17.1172	-40.0399	-230.945	-8.54259	-63.8196	-228.428	17.3022	-80.0208	-211.934	-13.6246	-33.2674	-212.031	-2.35482	-56.8401	-213.283	16.7023	-68.0153	-197.094	-7.57923	-15.4523	-185.83	-4.01553	-35.0278	-181.768	5.67295	-58.0392	-214.809	-19.5819	12.4113	-214.662	-22.2618	40.9518	-244.185	-20.5458	26.2047	
194	1.61667	-259.216	7.04014	28.271	-263.553	29.3599	6.78039	-258.399	39.4354	-11.5225	-247.265	46.8674	-32.402	-256.576	-12.6871	-33.2898	-260.205	-0.0972671	-58.1981	-261.131	17.0189	-71.0482	-235.001	-16.9917	-37.5432	-231.202	-4.43192	-65.2048	-227.838	20.3014	-76.0131	-212.262	-14.2818	-28.4361	-209.418	-6.01018	-53.6335	-213.727	16.9295	-70.8868	-194.17	-7.76988	-14.3762	-186.791	-2.83745	-37.0371	-182.649	4.48805	-56.3167	-214.07	-20.4955	16.0737	-215.571	-20.143	41.6668	-240.533	-22.0828	29.0257	
195	1.625	-259.069	5.94986	32.9505	-262.763	26.7296	10.7799	-261.282	37.5475	-12.9473	-252.629	48.4962	-28.9496	-256.622	-14.1903	-29.8276	-258.058	-1.31426	-57.9255	-258.616	18.5688	-70.4585	-232.745	-16.8279	-38.2039	-228.551	-4.89729	-61.6304	-231.118	28.0109	-71.7111	-209.378	-13.7225	-27.7936	-207.072	-6.23622	-52.9463	-210.293	12.1313	-69.1134	-192.803	-7.47539	-16.0431	-186.834	-4.93306	-32.6513	-182.53	4.31255	-55.3586	-214.379	-22.3574	15.3531	-215.959	-22.2334	38.9646	-239.882	-24.4233	24.6569	
196	1.63333	-256.146	3.83962	32.0968	-262.528	25.2428	12.6196	-262.252	37.8247	-9.14644	-251.805	47.7841	-33.2258	-256.991	-14.8084	-29.9987	-256.613	-4.91104	-53.473	-255.913	17.027	-70.8043	-231.941	-15.3508	-35.194	-228.598	2.83382	-62.0463	-234.31	33.6007	-67.1872	-210.215	-14.5129	-29.6899	-211.963	-4.56683	-55.6733	-213.021	12.9535	-69.9979	-193.006	-7.89798	-14.9003	-184.177	-5.00227	-33.3783	-177.667	2.95497	-52.6569	-211.623	-22.1283	15.7172	-212.296	-24.5905	41.2695	-241.546	-24.1152	29.2601	
197	1.64167	-259.745	2.97253	32.4576	-262.321	24.5477	13.3562	-259.65	35.0481	-11.2063	-252.988	46.7423	-30.6748	-256.89	-16.0185	-31.6761	-256.506	-4.71644	-56.5113	-258.411	13.0659	-70.5215	-229.806	-14.2222	-36.0188	-233.416	2.41201	-59.6307	-234.423	36.8547	-62.0157	-211.145	-14.3452	-29.4842	-211.163	-4.93059	-53.3447	-209.353	13.6269	-68.4906	-191.979	-9.13296	-14.901	-183.073	-5.17797	-32.6318	-176.693	-2.24398	-50.3449	-213.366	-22.5838	14.863	-212.04	-22.6721	43.695	-237.989	-24.8687	26.0288	
198	1.65	-259.945	2.55281	36.3042	-260.569	22.3255	12.2461	-260.865	33.9691	-7.40851	-251.334	42.989	-30.2756	-254.866	-17.4985	-27.4242	-260.044	-9.6635	-54.0756	-256.835	8.09745	-72.203	-229.65	-13.4236	-39.2147	-229.235	7.77394	-59.3749	-234.287	37.6701	-56.9367	-208.329	-14.612	-27.557	-206.603	-3.65901	-53.7983	-211.877	11.8484	-67.7896	-190.962	-9.63815	-11.5088	-181.631	-6.99794	-30.3235	-174.961	-3.79607	-48.2251	-211.334	-24.3823	13.2978	-212.855	-24.1831	41.6992	-237.986	-26.8155	30.1289	
199	1.65833	-255.16	-0.176062	32.6899	-260.431	19.5323	9.55808	-260.022	31.9381	-13.1581	-250.386	40.2988	-28.2397	-252.284	-20.3046	-30.5653	-256.332	-12.4437	-53.2706	-259.266	4.12416	-73.3038	-232.773	-14.5508	-38.1148	-230.745	5.38835	-56.4777	-231.465	36.2904	-53.2056	-211.173	-15.4637	-28.4037	-210.171	-4.69711	-51.7663	-211.491	15.2018	-67.6757	-187.415	-10.7017	-15.8916	-183.889	-8.2938	-29.9341	-173.735	-3.36636	-47.0017	-215.046	-24.3939	14.2974	-211.55	-26.331	42.0634	-241.737	-29.3245	26.5673	
200	1.66667	-256.671	-1.86999	32.2939	-261.321	18.4456	9.46059	-260.966	31.1138	-11.8212	-247.275	37.1369	-28.9758	-251.579	-22.5838	-31.2856	-257.231	-16.4364	-52.0045	-260.473	-0.501467	-74.0941	-228.622	-15.6874	-33.9203	-234.389	8.95399	-57.1487	-231.39	36.9125	-47.034	-213.199	-16.3932	-26.2984	-209.262	-6.21963	-50.5587	-214.623	14.8663	-66.5746	-191.359	-11.7527	-13.275	-182.974	-8.59766	-30.8666	-172.174	-5.58876	-49.8232	-211.216	-25.3904	18.233	-209.247	-27.3874	43.213	-235.434	-30.4094	31.1884	
201	1.675	-257.597	-2.92762	32.8427	-265.357	19.8087	13.6361	-261.451	28.7376	-7.53217	-249.28	37.9245	-26.9719	-250.015	-23.0822	-27.7306	-254.443	-17.3832	-55.2837	-257.908	-5.52295	-72.282	-232.114	-16.3276	-35.535	-232.807	10.3253	-54.5018	-232.93	37.3276	-43.7655	-207.796	-17.1969	-29.7401	-207.598	-2.93384	-53.0891	-212.477	18.3872	-66.4855	-188.142	-12.7849	-13.8471	-178.885	-9.35645	-33.0379	-173.145	-5.80783	-48.6474	-210.666	-27.53	14.2391	-211.629	-28.8077	44.6846	-236.284	-32.1819	31.774	
202	1.68333	-257.027	-4.31611	37.6467	-259.82	14.4308	10.6564	-259.124	26.2877	-8.81249	-250.015	38.3594	-27.6799	-252.877	-24.8998	-24.859	-256.891	-20.989	-53.503	-255.704	-8.44227	-72.2952	-232.474	-17.3223	-33.2735	-234.936	9.4199	-54.5051	-231.24	35.6056	-41.6168	-213.004	-18.1583	-28.7333	-211.931	-6.93602	-50.1026	-214.93	14.8732	-62.7908	-188.572	-13.2982	-16.323	-181.729	-11.0521	-28.891	-172.637	-8.36208	-47.6116	-213.064	-27.8879	14.6732	-212.288	-31.9586	42.5614	-236.263	-31.8551	27.38	
203	1.69167	-258.099	-5.85484	34.4381	-262.955	16.4598	10.1921	-261.06	27.5634	-10.2397	-248.648	34.3084	-26.2932	-250.408	-26.5599	-25.669	-256.983	-23.7664	-49.7173	-255.485	-10.5259	-72.2587	-231.13	-18.0932	-32.3449	-234.225	6.11467	-53.3903	-236.291	33.4248	-40.5699	-208.889	-18.3394	-27.0411	-211.947	-3.77838	-52.7823	-212.979	18.0944	-63.9794	-190.764	-14.5489	-11.4129	-181.371	-12.1682	-31.4	-175.647	-9.77809	-46.7079	-209.852	-29.1506	14.9746	-207.203	-32.6109	44.0943	-239.339	-32.951	28.8519	
